<svg width="32" height="32" viewBox="0 0 32 32" fill="none" xmlns="http://www.w3.org/2000/svg">
<g filter="url(#filter0_dd_4_404)">
<path d="M30 30V27.9889C28.8235 25.9561 27.3951 23.915 25.4068 22.1152C24.9948 20.6636 24.0133 19.5365 22.6713 18.9346C23.0201 19.4185 23.227 20.0027 23.2388 20.7108C22.5294 20.7049 21.9441 20.4924 21.4593 20.1443C22.0564 21.472 23.1561 22.4456 24.5868 22.8587C26.9682 24.9948 28.5267 27.5098 29.8504 30H30ZM28.4061 30C25.1928 29.1184 20.7676 26.7922 16.8064 23.6789L15.8427 24.3634C18.8698 26.7881 22.1806 28.749 25.1148 30H28.4061ZM21.8968 30C20.2177 29.5196 18.7752 28.8452 17.4449 28.0627C16.6764 26.7669 15.4289 25.9301 13.9804 25.6935C14.4416 26.07 14.7904 26.5816 14.9855 27.262C14.2938 27.4378 13.6789 27.3853 13.1231 27.1758C14.0395 28.3017 15.3579 28.9596 16.8478 28.9909C17.4568 29.3491 18.0894 29.6884 18.7574 30H21.8968ZM11.7693 29.7073L12.0471 26.7993C12.4078 26.1821 12.7625 25.5649 13.1231 24.9476C13.9863 24.2867 14.678 23.8442 15.5235 23.2364L13.1823 21.891H13.1764L10.912 22.7112C8.70677 21.0176 5.90441 20.1384 3.01928 20.3626C4.27265 22.9944 6.4365 24.9771 9.02011 26.0293L9.43396 28.3601L11.7693 29.7073ZM19.5024 22.245L20.5193 19.507C21.0277 19.0113 21.5361 18.4979 22.0387 17.9905C22.9196 17.6482 23.8833 17.2942 24.7937 16.9578L22.8841 15.0518L20.4838 15.2584C18.7929 13.0573 16.3157 11.4818 13.472 10.9566C13.9981 13.8185 15.5767 16.2969 17.7937 17.9787L17.5927 20.339L19.5024 22.245ZM12.2127 21.0648L13.2887 20.6754C12.2777 19.6309 11.3081 18.4271 10.6696 17.5715C10.6046 16.1317 9.95423 14.8512 8.86049 13.9543C9.06741 14.5148 9.11471 15.1285 8.94325 15.8189C8.25744 15.6242 7.749 15.2702 7.37062 14.8099C7.61302 16.3087 8.49393 17.5833 9.87146 18.3445C10.5809 19.2828 11.3672 20.1915 12.2127 21.0648ZM30 16.4385V13.5058C29.1693 12.0542 28.0188 10.8799 26.6306 9.90625C25.8692 8.51363 24.5809 7.6167 23.0674 7.36886C23.5285 7.74652 23.8833 8.2599 24.0784 8.9385C23.3866 9.11553 22.7659 9.06242 22.2101 8.84999C23.097 9.94165 24.3562 10.5907 25.7852 10.6616C27.8911 12.0719 29.3431 13.8598 30 16.4385ZM4.93482 16.3323L6.6316 13.9484C7.25238 13.5943 7.86724 13.2344 8.48802 12.8803C9.43987 12.7682 10.4509 12.6856 11.4204 12.5971L10.0666 10.2603L7.69579 9.84134C6.63751 7.27445 4.65103 5.11472 2.03786 3.86963C1.80137 6.77287 2.68229 9.5758 4.39681 11.7709L3.58684 13.9956L4.93482 16.3323ZM20.8622 11.3815L21.1341 8.47233C21.4948 7.86453 21.8554 7.23904 22.2101 6.61945C22.9787 6.05296 23.8064 5.47467 24.6045 4.91409L22.2633 3.56278L19.999 4.38301C17.7937 2.68945 14.9973 1.81022 12.1122 2.03445C13.3596 4.67215 15.5235 6.65485 18.1071 7.70521L18.5209 10.0361L20.8622 11.3815Z" fill="url(#paint0_linear_4_404)"/>
</g>
<defs>
<filter id="filter0_dd_4_404" x="-1.00002" y="-1.00003" width="34" height="34" filterUnits="userSpaceOnUse" color-interpolation-filters="sRGB">
<feFlood flood-opacity="0" result="BackgroundImageFix"/>
<feColorMatrix in="SourceAlpha" type="matrix" values="0 0 0 0 0 0 0 0 0 0 0 0 0 0 0 0 0 0 127 0" result="hardAlpha"/>
<feOffset/>
<feGaussianBlur stdDeviation="1.5"/>
<feComposite in2="hardAlpha" operator="out"/>
<feColorMatrix type="matrix" values="0 0 0 0 0.0196078 0 0 0 0 0.811765 0 0 0 0 0.984314 0 0 0 0.45 0"/>
<feBlend mode="normal" in2="BackgroundImageFix" result="effect1_dropShadow_4_404"/>
<feColorMatrix in="SourceAlpha" type="matrix" values="0 0 0 0 0 0 0 0 0 0 0 0 0 0 0 0 0 0 127 0" result="hardAlpha"/>
<feOffset dx="2" dy="2"/>
<feGaussianBlur stdDeviation="0.5"/>
<feComposite in2="hardAlpha" operator="out"/>
<feColorMatrix type="matrix" values="0 0 0 0 0.0705882 0 0 0 0 0.054902 0 0 0 0 0.152941 0 0 0 0.3 0"/>
<feBlend mode="normal" in2="effect1_dropShadow_4_404" result="effect2_dropShadow_4_404"/>
<feBlend mode="normal" in="SourceGraphic" in2="effect2_dropShadow_4_404" result="shape"/>
</filter>
<linearGradient id="paint0_linear_4_404" x1="16" y1="1.99997" x2="16" y2="30" gradientUnits="userSpaceOnUse">
<stop stop-color="#09F8F8"/>
<stop offset="1" stop-color="#0099FF"/>
</linearGradient>
</defs>
</svg>
