<svg width="32" height="32" viewBox="0 0 32 32" fill="none" xmlns="http://www.w3.org/2000/svg">
<g filter="url(#filter0_dd_4_365)">
<path d="M29.8319 29.3769C29.678 27.8764 29.2806 26.485 28.6761 25.2367L29.9316 25.6263L26.5921 22.2095L26.642 22.3152C25.6516 21.2889 24.4646 20.4526 23.1249 19.8464C23.9264 20.965 24.4028 22.3202 24.4285 23.9587C22.7846 23.9379 21.4464 23.4506 20.3307 22.6491C20.3678 22.7322 20.4067 22.8138 20.4455 22.8958L20.4029 22.8587L22.4407 28.0023L22.5904 25.9934C24.4233 27.869 26.9127 29.085 29.8318 29.3768L29.8319 29.3769ZM15.8188 27.5016L18.0895 21.3693C19.904 20.9229 21.3184 19.4558 21.6936 17.6093L21.7047 17.6224L28.0104 15.274L23.6131 10.8631L18.11 11.3397L18.0878 11.3417L16.725 11.4882L21.2997 17.1234L20.5139 17.9117L15.2234 11.3972L14.5799 10.6034L15.5932 10.4939L17.2631 10.3141C16.4039 9.29751 15.4699 8.34678 14.4689 7.47043C14.018 10.841 11.3815 13.5274 8.04122 14.0423C8.91224 15.0358 9.85665 15.9623 10.8667 16.8136L11.0312 15.2629L11.1404 14.2464L11.932 14.8919L18.3152 20.1171L17.5312 20.9036L12.0225 16.3981L11.8911 17.6353L11.4234 23.0924L15.8188 27.5015L15.8188 27.5016ZM7.18332 13.0147C7.70304 12.9905 8.20737 12.9063 8.68845 12.768L7.86743 11.7644C7.42303 11.9148 6.95793 12.021 6.47881 12.0779C6.70739 12.3951 6.94119 12.7083 7.18332 13.0146V13.0147ZM9.77393 12.3469C10.2073 12.1327 10.6144 11.8724 10.987 11.5716L10.055 10.5459C9.70469 10.8353 9.3261 11.0896 8.92331 11.3063L9.77393 12.3469V12.3469ZM5.75015 11.0151C6.2188 11.0081 6.6742 10.9464 7.10936 10.8352L6.25134 9.78531C5.88992 9.89334 5.51482 9.96593 5.12883 10.0041C5.32925 10.346 5.53505 10.6834 5.75015 11.015V11.0151ZM11.7876 10.8055C12.1848 10.3554 12.5213 9.84894 12.7844 9.30119L11.7599 8.46277C11.5066 8.93513 11.2013 9.37509 10.8501 9.77415L11.7877 10.8055H11.7876ZM8.20956 10.4327C8.60425 10.2399 8.97337 10.0013 9.31166 9.72779L8.34821 8.66678C8.03222 8.92688 7.68843 9.15547 7.3238 9.34761L8.20962 10.4327H8.20956ZM10.1031 8.95241C10.411 8.58718 10.6755 8.18313 10.8872 7.74864L9.82381 6.8768C9.62824 7.2365 9.39764 7.57484 9.13598 7.88587L10.103 8.95235L10.1031 8.95241ZM4.53526 8.93946V8.92641C7.2522 8.92641 9.44427 6.73108 9.45019 4.00716C7.12776 2.77253 4.6 1.87445 1.93164 1.37686C2.42183 4.06741 3.31038 6.60892 4.53526 8.93941V8.93946ZM13.1947 8.2067C13.3356 7.69623 13.4162 7.16053 13.4296 6.60773C13.1375 6.37713 12.8403 6.15281 12.5383 5.93444C12.4833 6.44373 12.3756 6.93639 12.2164 7.40722L13.1947 8.20676V8.2067ZM11.292 6.64857C11.4103 6.18647 11.4738 5.70122 11.475 5.20173C11.1626 4.99814 10.8459 4.80243 10.5245 4.61184C10.4819 5.02687 10.397 5.42954 10.2749 5.81572L11.2919 6.64851L11.292 6.64857Z" fill="url(#paint0_linear_4_365)"/>
</g>
<defs>
<filter id="filter0_dd_4_365" x="-1.06836" y="-1.62314" width="34" height="34" filterUnits="userSpaceOnUse" color-interpolation-filters="sRGB">
<feFlood flood-opacity="0" result="BackgroundImageFix"/>
<feColorMatrix in="SourceAlpha" type="matrix" values="0 0 0 0 0 0 0 0 0 0 0 0 0 0 0 0 0 0 127 0" result="hardAlpha"/>
<feOffset/>
<feGaussianBlur stdDeviation="1.5"/>
<feComposite in2="hardAlpha" operator="out"/>
<feColorMatrix type="matrix" values="0 0 0 0 0.403922 0 0 0 0 0.843137 0 0 0 0 0.498039 0 0 0 0.45 0"/>
<feBlend mode="normal" in2="BackgroundImageFix" result="effect1_dropShadow_4_365"/>
<feColorMatrix in="SourceAlpha" type="matrix" values="0 0 0 0 0 0 0 0 0 0 0 0 0 0 0 0 0 0 127 0" result="hardAlpha"/>
<feOffset dx="2" dy="2"/>
<feGaussianBlur stdDeviation="0.5"/>
<feComposite in2="hardAlpha" operator="out"/>
<feColorMatrix type="matrix" values="0 0 0 0 0.0705882 0 0 0 0 0.054902 0 0 0 0 0.152941 0 0 0 0.3 0"/>
<feBlend mode="normal" in2="effect1_dropShadow_4_365" result="effect2_dropShadow_4_365"/>
<feBlend mode="normal" in="SourceGraphic" in2="effect2_dropShadow_4_365" result="shape"/>
</filter>
<linearGradient id="paint0_linear_4_365" x1="15.9316" y1="1.37686" x2="15.9316" y2="29.3769" gradientUnits="userSpaceOnUse">
<stop stop-color="#C4F809"/>
<stop offset="1" stop-color="#00B3FF"/>
</linearGradient>
</defs>
</svg>
