<svg width="50" height="48" viewBox="0 0 50 48" fill="none" xmlns="http://www.w3.org/2000/svg">
<path d="M41 28C41 36.8365 33.8366 44 25 44C16.1634 44 9 36.8365 9 28C9 19.1634 16.1634 12 25 12C33.8366 12 41 19.1634 41 28Z" fill="#FFD233" fill-opacity="0.15"/>
<g filter="url(#filter0_d_4_558)">
<path fill-rule="evenodd" clip-rule="evenodd" d="M25 43C33.2843 43 40 36.2843 40 28C40 19.7157 33.2843 13 25 13C16.7157 13 10 19.7157 10 28C10 36.2843 16.7157 43 25 43ZM25 44C33.8366 44 41 36.8365 41 28C41 19.1634 33.8366 12 25 12C16.1634 12 9 19.1634 9 28C9 36.8365 16.1634 44 25 44Z" fill="#FFD233" fill-opacity="0.7" shape-rendering="crispEdges"/>
</g>
<g filter="url(#filter1_d_4_558)">
<circle cx="25" cy="28" r="3" fill="white"/>
</g>
<g filter="url(#filter2_d_4_558)">
<path d="M24.1252 -3.05121e-05L25.6331 -3.05118e-05L25.6331 15.2075L24.1252 15.2075L24.1252 -3.05121e-05Z" fill="white"/>
<path d="M13.0581 35.0792L13.812 36.3962L0.753853 44L-6.10254e-05 42.683L13.0581 35.0792Z" fill="white"/>
<path d="M36.1879 36.3962L36.9418 35.0792L49.9999 42.683L49.246 44L36.1879 36.3962Z" fill="white"/>
</g>
<defs>
<filter id="filter0_d_4_558" x="5" y="7.99998" width="40" height="40" filterUnits="userSpaceOnUse" color-interpolation-filters="sRGB">
<feFlood flood-opacity="0" result="BackgroundImageFix"/>
<feColorMatrix in="SourceAlpha" type="matrix" values="0 0 0 0 0 0 0 0 0 0 0 0 0 0 0 0 0 0 127 0" result="hardAlpha"/>
<feOffset/>
<feGaussianBlur stdDeviation="2"/>
<feComposite in2="hardAlpha" operator="out"/>
<feColorMatrix type="matrix" values="0 0 0 0 1 0 0 0 0 0.823529 0 0 0 0 0.2 0 0 0 0.8 0"/>
<feBlend mode="normal" in2="BackgroundImageFix" result="effect1_dropShadow_4_558"/>
<feBlend mode="normal" in="SourceGraphic" in2="effect1_dropShadow_4_558" result="shape"/>
</filter>
<filter id="filter1_d_4_558" x="22" y="25" width="6" height="7" filterUnits="userSpaceOnUse" color-interpolation-filters="sRGB">
<feFlood flood-opacity="0" result="BackgroundImageFix"/>
<feColorMatrix in="SourceAlpha" type="matrix" values="0 0 0 0 0 0 0 0 0 0 0 0 0 0 0 0 0 0 127 0" result="hardAlpha"/>
<feOffset dy="1"/>
<feComposite in2="hardAlpha" operator="out"/>
<feColorMatrix type="matrix" values="0 0 0 0 0 0 0 0 0 0 0 0 0 0 0 0 0 0 0.07 0"/>
<feBlend mode="normal" in2="BackgroundImageFix" result="effect1_dropShadow_4_558"/>
<feBlend mode="normal" in="SourceGraphic" in2="effect1_dropShadow_4_558" result="shape"/>
</filter>
<filter id="filter2_d_4_558" x="-6.10352e-05" y="-3.05176e-05" width="50" height="45" filterUnits="userSpaceOnUse" color-interpolation-filters="sRGB">
<feFlood flood-opacity="0" result="BackgroundImageFix"/>
<feColorMatrix in="SourceAlpha" type="matrix" values="0 0 0 0 0 0 0 0 0 0 0 0 0 0 0 0 0 0 127 0" result="hardAlpha"/>
<feOffset dy="1"/>
<feComposite in2="hardAlpha" operator="out"/>
<feColorMatrix type="matrix" values="0 0 0 0 0 0 0 0 0 0 0 0 0 0 0 0 0 0 0.12 0"/>
<feBlend mode="normal" in2="BackgroundImageFix" result="effect1_dropShadow_4_558"/>
<feBlend mode="normal" in="SourceGraphic" in2="effect1_dropShadow_4_558" result="shape"/>
</filter>
</defs>
</svg>
