<svg width="9" height="9" viewBox="0 0 9 9" fill="none" xmlns="http://www.w3.org/2000/svg">
<path d="M9 5.4671C9 3.44636 8.35249 1.10273 6.6994 -4.57764e-05L6.26378 0.695528C6.68341 0.962211 6.90389 1.20904 7.11666 1.64526C6.96958 1.85573 6.8592 2.10989 6.76687 2.39674C6.84204 2.56964 6.89649 2.87817 6.89678 3.08254L6.23389 2.97073L5.66155 3.61926L5.20137 2.64631C4.59618 3.41459 4.41477 3.73717 3.47873 3.6715L3.21416 2.82929L2.27072 3.01808C2.27072 3.01808 2.09878 2.04788 1.80994 1.83069C1.89103 1.48091 2.13251 1.17116 2.57316 0.892562L2.15471 0.0925141C0.622945 1.20109 0 3.4039 0 5.4671C1.71554 6.35787 2.22751 7.36992 2.13222 8.44398C2.38791 8.59275 2.65247 8.7403 2.96261 8.82614C3.38669 8.94344 3.84154 8.99995 4.30912 8.99995C4.7767 8.99995 5.25582 8.94375 5.70061 8.82614C6.10338 8.71983 6.46856 8.55365 6.80031 8.35112C6.78551 7.30608 7.33714 6.27387 8.9997 5.4671H9ZM3.24849 6.00443C2.72675 6.31541 2.11712 6.23568 1.89162 5.83245C1.76289 5.60212 1.79071 5.3168 1.93128 5.0544C2.16832 5.05012 2.44769 5.00094 2.74865 4.88241C3.03541 4.76939 3.30383 4.61451 3.51838 4.44833C3.62906 4.50851 3.72583 4.59893 3.78827 4.71043C4.01378 5.11366 3.77022 5.69346 3.24849 6.00443ZM3.75158 7.95583C3.93387 7.26728 4.15287 6.57843 4.5 5.88988C4.8421 6.57843 5.11377 7.26728 5.24842 7.95583C4.74947 7.79881 4.25053 7.77774 3.75158 7.95583ZM7.1066 5.83245C6.8811 6.23568 6.27147 6.31541 5.74974 6.00443C5.228 5.69346 4.98445 5.11366 5.21025 4.71043C5.27269 4.59893 5.36916 4.50851 5.48014 4.44833C5.6944 4.61451 5.96311 4.76939 6.24987 4.88241C6.55084 5.00124 6.8302 5.05012 7.06724 5.0544C7.20781 5.3168 7.23533 5.60212 7.1066 5.83245ZM1.72856 1.93974C1.82622 1.67367 1.89251 1.35139 2.20827 1.14183L1.72856 1.93974ZM7.21906 1.74332C7.11163 1.53315 6.93348 1.16566 6.71922 1.0007L7.21906 1.74332Z" fill="url(#paint0_linear_4_266)"/>
<defs>
<linearGradient id="paint0_linear_4_266" x1="4.5" y1="-4.57764e-05" x2="4.5" y2="8.99995" gradientUnits="userSpaceOnUse">
<stop stop-color="#0974F8"/>
<stop offset="1" stop-color="#4FB2FE"/>
</linearGradient>
</defs>
</svg>
