<svg width="16" height="16" viewBox="0 0 16 16" fill="none" xmlns="http://www.w3.org/2000/svg">
<path d="M7.59225 2.92748L7.97244 3.40856L8.36716 2.93933C9.31982 1.80682 10.5349 0.999969 12 0.999969C14.0258 0.999969 15.5 2.74672 15.5 4.71896C15.5 5.76267 15.1643 6.50605 14.5979 7.23441L8.39251 14.6573C8.22976 14.8093 8.12293 14.9007 8.04228 14.955C8.02064 14.9696 8.00444 14.9791 7.99303 14.9851C7.98163 14.9791 7.96542 14.9696 7.94379 14.955C7.86316 14.9007 7.75639 14.8094 7.59375 14.6575L1.41474 7.24946C0.905013 6.47786 0.500031 5.73622 0.500031 4.71896C0.500031 2.74672 1.97429 0.999969 4.00003 0.999969C5.47081 0.999969 6.67893 1.77183 7.59225 2.92748Z" fill="url(#paint0_linear_4_189)" stroke="#FF295D"/>
<defs>
<linearGradient id="paint0_linear_4_189" x1="8.00003" y1="0.499969" x2="8.00003" y2="15.4923" gradientUnits="userSpaceOnUse">
<stop stop-color="#DC1E21"/>
<stop offset="1" stop-color="#FF293F"/>
</linearGradient>
</defs>
</svg>
