<svg width="9" height="9" viewBox="0 0 9 9" fill="none" xmlns="http://www.w3.org/2000/svg">
<path d="M4.49999 5.52817C5.06787 5.52817 5.52822 5.06782 5.52822 4.49994C5.52822 3.93207 5.06787 3.47171 4.49999 3.47171C3.93211 3.47171 3.47176 3.93207 3.47176 4.49994C3.47176 5.06782 3.93211 5.52817 4.49999 5.52817Z" fill="url(#paint0_linear_4_261)"/>
<path d="M8.89919 3.89508H8.09944C7.84336 2.36622 6.63371 1.1566 5.10486 0.900517V0.100765C5.10486 0.0450973 5.05973 -4.57764e-05 5.00404 -4.57764e-05H3.99594C3.94027 -4.57764e-05 3.89513 0.0450973 3.89513 0.100765V0.900517C2.36627 1.1566 1.15664 2.36622 0.900563 3.89508H0.100811C0.0451431 3.89508 0 3.94022 0 3.99589V5.004C0 5.05969 0.0451431 5.10481 0.100811 5.10481H0.900563C1.15664 6.63367 2.36627 7.84331 3.89513 8.09939V8.89914C3.89513 8.95479 3.94027 8.99996 3.99594 8.99996H5.00404C5.05973 8.99996 5.10486 8.95479 5.10486 8.89914V8.09939C6.63371 7.84331 7.84336 6.63367 8.09944 5.10481H8.89919C8.95484 5.10481 9 5.05969 9 5.004V3.99589C9 3.94022 8.95488 3.89508 8.89919 3.89508ZM4.49999 7.14167C3.04334 7.14167 1.85826 5.95662 1.85826 4.49994C1.85826 3.04329 3.04334 1.85822 4.49999 1.85822C5.95667 1.85822 7.14174 3.04329 7.14174 4.49994C7.14174 5.95662 5.95667 7.14167 4.49999 7.14167Z" fill="url(#paint1_linear_4_261)"/>
<defs>
<linearGradient id="paint0_linear_4_261" x1="4.5" y1="-4.57764e-05" x2="4.5" y2="8.99996" gradientUnits="userSpaceOnUse">
<stop stop-color="#0974F8"/>
<stop offset="1" stop-color="#4FB2FE"/>
</linearGradient>
<linearGradient id="paint1_linear_4_261" x1="4.5" y1="-4.57764e-05" x2="4.5" y2="8.99996" gradientUnits="userSpaceOnUse">
<stop stop-color="#0974F8"/>
<stop offset="1" stop-color="#4FB2FE"/>
</linearGradient>
</defs>
</svg>
