<svg width="8" height="9" viewBox="0 0 8 9" fill="none" xmlns="http://www.w3.org/2000/svg">
<path d="M5.64466 5.20573L7.04485 3.21217L8 3.99696L6.59981 5.99149L5.64466 5.20573ZM5.35807 4.97603L6.84696 2.85496L5.84411 2.03184L4.35523 4.15291L5.35807 4.97603ZM4.74567 2.61923L4.31556 3.57299L5.58583 1.76526L4.63848 0.986734L3.83085 2.13669L4.74567 2.61923ZM4.28347 0.853926L3.24408 -4.57764e-05L2.3081 1.33309L3.50415 1.96387L4.28347 0.853926ZM6.668 6.53068L3.57034 4.05505L3.34927 4.07699L3.45089 4.12519L4.83615 7.46178L4.46799 7.51601L3.18257 4.41877L2.29116 3.99214L2.20202 3.24881L3.08028 3.71689L3.89058 3.63662L4.26943 2.79711L1.79798 1.49338L0 4.20522L2.25283 7.88069L1.74695 8.99995H5.89426V8.50617L6.68071 7.3268L6.91938 6.17178L6.668 6.53068Z" fill="url(#paint0_linear_4_271)"/>
<defs>
<linearGradient id="paint0_linear_4_271" x1="4" y1="-4.57764e-05" x2="4" y2="11.3906" gradientUnits="userSpaceOnUse">
<stop stop-color="#0974F8"/>
<stop offset="1" stop-color="#4FB2FE"/>
</linearGradient>
</defs>
</svg>
