<svg width="32" height="32" viewBox="0 0 32 32" fill="none" xmlns="http://www.w3.org/2000/svg">
<g filter="url(#filter0_dd_4_443)">
<path d="M30 30V28.1431L29.5395 27.5618C29.7307 27.2249 29.8802 26.8854 29.9827 26.5517C29.9889 26.5317 29.9941 26.5114 29.9998 26.4913V24.8136C29.9177 24.6059 29.7965 24.4146 29.6296 24.2481C29.046 23.6656 28.1617 23.6395 27.3224 23.8982C27.1481 23.9519 26.9723 24.019 26.796 24.0975L24.5014 21.1998C24.6151 20.957 24.7105 20.715 24.7852 20.4761C25.1008 19.4669 25.0672 18.4315 24.3952 17.7581C23.7231 17.085 22.6888 17.0507 21.6837 17.3646C21.626 17.3827 21.568 17.4022 21.5101 17.4224L17.6516 12.55C17.6828 12.4589 17.7127 12.3681 17.7395 12.278C18.1023 11.0594 18.0634 9.85382 17.2881 9.07712C16.5923 8.37989 15.5474 8.27653 14.4732 8.53635L9.29699 2.00003H7.89049L8.02713 2.17248C7.83102 2.75809 7.52329 3.39089 7.11432 4.02795L5.26387 1.99997H1.99978V6.45262L3.83235 8.05122C3.50893 8.55045 3.23837 9.05341 3.02621 9.54951L1.99983 8.76131V10.1513L2.64763 10.6489C2.31276 11.959 2.42922 13.2148 3.25094 14.0348C4.14551 14.9275 5.55384 14.9838 6.98134 14.5346C7.14553 14.483 7.31114 14.4237 7.47751 14.3586L12.7574 18.4138C12.7084 18.5485 12.664 18.6823 12.6252 18.815C12.2913 19.9596 12.3329 21.0997 13.0695 21.8377C13.806 22.5758 14.9491 22.6183 16.0777 22.2655C16.4385 22.1528 16.8061 21.9986 17.174 21.8061L20.6846 24.5025C20.525 24.791 20.3943 25.0789 20.2958 25.3613C19.9908 26.2362 19.9674 27.1546 20.568 27.7564C21.1685 28.3583 22.0869 28.3359 22.9616 28.0316C23.4168 27.8732 23.8861 27.6319 24.3504 27.3182L27.8422 30H30ZM21.8677 27.1353C21.6157 27.1372 21.4424 27.0718 21.3485 26.9776C21.1815 26.8104 21.1047 26.3903 21.3369 25.7243C21.3967 25.553 21.4756 25.3717 21.5723 25.1844L23.4172 26.6013C23.1308 26.7706 22.8538 26.9015 22.5991 26.9901C22.3078 27.0916 22.0639 27.1338 21.8678 27.1352L21.8677 27.1353ZM28.7848 26.6087L27.5096 24.9982C27.5561 24.9816 27.6022 24.9658 27.6474 24.9519C28.2645 24.7616 28.6654 24.8433 28.8509 25.0284C29.0363 25.2135 29.1178 25.6124 28.9287 26.228C28.8912 26.3501 28.8428 26.4777 28.7848 26.6088L28.7848 26.6087ZM24.1406 25.7666L22.1711 24.2539C22.2021 24.2134 22.2351 24.1731 22.2676 24.1328L24.1405 25.7666H24.1406ZM25.15 23.7946L23.8261 22.3435C23.8538 22.3047 23.8816 22.2658 23.9085 22.2268L25.1498 23.7946L25.15 23.7946ZM21.2951 23.5809L18.176 21.1853C18.304 21.0934 18.4311 20.9967 18.5573 20.896L21.4348 23.4062C21.3875 23.4642 21.3403 23.5224 21.2951 23.5808V23.5809ZM23.0613 21.5053L20.7824 19.0077C20.9144 18.924 21.046 18.8461 21.1759 18.7763L23.1846 21.3129C23.1453 21.3769 23.1039 21.4412 23.0613 21.5054L23.0613 21.5053ZM14.7562 21.3777C14.3534 21.3721 14.0465 21.2557 13.85 21.0587C13.5146 20.7227 13.4113 20.0587 13.6834 19.125L16.1898 21.0501C16.0395 21.1132 15.8919 21.1684 15.7489 21.2131C15.4089 21.3193 15.104 21.3715 14.838 21.3774C14.8102 21.378 14.7831 21.3781 14.7562 21.3777V21.3777ZM17.254 20.4774L14.1123 18.0641C14.2284 17.8348 14.3622 17.601 14.5104 17.3658L17.709 20.156C17.5575 20.2703 17.4056 20.3781 17.254 20.4773L17.254 20.4774ZM23.7135 20.2048L22.2469 18.3526C22.905 18.1942 23.3712 18.293 23.6147 18.5368L23.6148 18.5369C23.8862 18.8089 23.9793 19.359 23.7329 20.1469C23.727 20.1659 23.7199 20.1855 23.7135 20.2048ZM20.0271 18.18L16.6781 14.5097C16.8526 14.2389 17.0122 13.9675 17.1536 13.697L20.4805 17.8982C20.3289 17.9849 20.1776 18.0791 20.0271 18.18ZM13.2223 17.3806L8.5964 13.8277C8.95534 13.6274 9.31416 13.3983 9.66879 13.1423L13.6685 16.6314C13.5052 16.8806 13.3557 17.1309 13.2222 17.3806H13.2223ZM5.30717 13.7067C4.75236 13.6999 4.31637 13.5403 4.0297 13.2543C3.64952 12.875 3.49224 12.2317 3.61908 11.3948L6.42364 13.549C6.05915 13.6476 5.72293 13.6987 5.41974 13.706C5.38169 13.7069 5.34422 13.7071 5.30717 13.7066V13.7067ZM15.9049 13.6622L12.9361 10.4085C13.3258 10.1623 13.7124 9.96326 14.0809 9.81677L16.3924 12.7358C16.2577 13.0369 16.0942 13.3478 15.9049 13.6622ZM7.63078 13.0859L3.93371 10.2464C4.11424 9.77677 4.36351 9.28355 4.6749 8.78591L8.81091 12.394C8.4148 12.6648 8.01798 12.8966 7.63078 13.0859ZM16.8005 11.4751L15.2512 9.51866C15.8193 9.46792 16.249 9.59642 16.5078 9.85577C16.8159 10.1644 16.9393 10.718 16.8005 11.4751V11.4751ZM12.1808 9.58061L7.88654 4.87438C8.27026 4.31379 8.58719 3.74558 8.82855 3.18434L13.3706 8.91984C12.9746 9.09771 12.5755 9.31937 12.1808 9.58061Z" fill="url(#paint0_linear_4_443)"/>
</g>
<defs>
<filter id="filter0_dd_4_443" x="-1.00023" y="-1.00003" width="34.0002" height="34" filterUnits="userSpaceOnUse" color-interpolation-filters="sRGB">
<feFlood flood-opacity="0" result="BackgroundImageFix"/>
<feColorMatrix in="SourceAlpha" type="matrix" values="0 0 0 0 0 0 0 0 0 0 0 0 0 0 0 0 0 0 127 0" result="hardAlpha"/>
<feOffset/>
<feGaussianBlur stdDeviation="1.5"/>
<feComposite in2="hardAlpha" operator="out"/>
<feColorMatrix type="matrix" values="0 0 0 0 0.945098 0 0 0 0 0.447059 0 0 0 0 0.341176 0 0 0 0.45 0"/>
<feBlend mode="normal" in2="BackgroundImageFix" result="effect1_dropShadow_4_443"/>
<feColorMatrix in="SourceAlpha" type="matrix" values="0 0 0 0 0 0 0 0 0 0 0 0 0 0 0 0 0 0 127 0" result="hardAlpha"/>
<feOffset dx="2" dy="2"/>
<feGaussianBlur stdDeviation="0.5"/>
<feComposite in2="hardAlpha" operator="out"/>
<feColorMatrix type="matrix" values="0 0 0 0 0.0705882 0 0 0 0 0.054902 0 0 0 0 0.152941 0 0 0 0.3 0"/>
<feBlend mode="normal" in2="effect1_dropShadow_4_443" result="effect2_dropShadow_4_443"/>
<feBlend mode="normal" in="SourceGraphic" in2="effect2_dropShadow_4_443" result="shape"/>
</filter>
<linearGradient id="paint0_linear_4_443" x1="15.9999" y1="1.99997" x2="15.9999" y2="30" gradientUnits="userSpaceOnUse">
<stop stop-color="#FFCC23"/>
<stop offset="1" stop-color="#E62E7E"/>
</linearGradient>
</defs>
</svg>
