<svg width="48" height="48" viewBox="0 0 48 48" fill="none" xmlns="http://www.w3.org/2000/svg">
<g filter="url(#filter0_dd_4_465)">
<path d="M18.3019 2.1445C22.0457 2.86919 24.6924 4.35578 26.2762 6.41894L20.9619 9.48625C20.298 9.17069 19.5696 8.9905 18.8085 8.97934C18.3772 8.97316 17.9355 9.02125 17.4902 9.12888C17.1574 7.11775 17.403 4.78056 18.3018 2.1445H18.3019ZM27.4101 7.78713L35.5636 21.9023L26.833 26.9473L24.7822 23.3965C25.7131 22.4783 26.1021 21.0813 26.1503 19.6259C26.2094 17.8459 25.7772 15.8667 24.9726 14.0771C24.3754 12.7489 23.5747 11.5183 22.5613 10.5877L27.4101 7.78703L27.4101 7.78713ZM8.05359 8.06247C10.8093 8.59591 12.9682 9.54325 14.5489 10.8281C13.6742 11.7468 13.2081 12.8679 13.1162 14.0184L7.81649 17.0771C6.81431 14.6698 6.83371 11.6405 8.05368 8.06247H8.05359ZM41.9092 8.81838L45.4659 14.9793L35.9034 18.9872L30.2021 9.11434L41.9091 8.81828L41.9092 8.81838ZM18.7882 10.6904C19.4009 10.7002 19.9686 10.9023 20.5285 11.2383C21.6481 11.9105 22.6731 13.2382 23.3731 14.795C24.0731 16.3517 24.4493 18.1243 24.4015 19.5675C24.3537 21.0091 23.9025 22.011 23.2003 22.4179C23.1996 22.4183 23.1979 22.4176 23.1972 22.4179C22.4938 22.8226 21.4019 22.7134 20.1299 22.0341C18.8564 21.3542 17.5096 20.1435 16.5116 18.7589C15.5136 17.3742 14.8757 15.8198 14.8534 14.5139C14.8312 13.2077 15.2924 12.1474 16.7752 11.2911C17.5168 10.8629 18.1754 10.6808 18.7881 10.6905L18.7882 10.6904ZM13.2746 15.9522C13.5744 17.2942 14.24 18.6034 15.091 19.7842C16.2382 21.3761 17.7329 22.7394 19.3038 23.5783C20.5919 24.2662 22.0033 24.6283 23.2675 24.2756L25.3155 27.8205L16.5851 32.8623L8.4375 18.7443L13.2744 15.9523L13.2746 15.9522ZM8.19149 21.8233L13.8898 31.6994L5.63699 37.9806L2.08031 31.8166L8.19159 21.8234L8.19149 21.8233ZM34.1281 24.756C36.2353 25.6785 37.8528 26.9261 38.9856 28.4445L30.7825 33.1817C30.0288 31.4398 29.7464 29.4225 29.9856 27.1496L34.1282 24.7562L34.1281 24.756ZM39.7618 30.0206L46.2919 41.3231V44.8242L38.2441 30.8964L39.7617 30.0205L39.7618 30.0206ZM23.88 30.6737C25.9875 31.5962 27.6042 32.8434 28.7372 34.3622L20.5341 39.0997C19.7801 37.3569 19.4976 35.3385 19.7372 33.0646L23.88 30.6739V30.6737ZM36.5447 31.8779L44.9822 46.3975H42.9553L35.0246 32.7569L36.5452 31.878L36.5447 31.8779ZM33.3162 33.7412L40.6081 46.3975H38.5868L31.8016 34.6172L33.3161 33.7412H33.3162ZM29.4872 35.9531L35.4141 46.3974H33.3984L27.9697 36.8291L29.4873 35.9531H29.4872ZM26.2588 37.8193L31.0459 46.3974H29.042L24.7413 38.6924L26.2589 37.8192L26.2588 37.8193ZM23.0302 39.6826L26.6807 46.3975H24.6826L21.5098 40.5588L23.0304 39.6827L23.0302 39.6826Z" fill="url(#paint0_linear_4_465)"/>
<path d="M18.8157 8.4794L18.8158 8.4794C19.5594 8.4903 20.2736 8.64817 20.933 8.92562L25.5145 6.28128C24.06 4.64093 21.7938 3.40059 18.6375 2.72323C17.9432 4.90625 17.7242 6.84778 17.9131 8.53845C18.2167 8.4944 18.5182 8.47513 18.8157 8.4794ZM31.033 32.4596L38.2337 28.3013C37.2287 27.1111 35.8757 26.1029 34.1573 25.3168L30.4585 27.4539C30.2931 29.3236 30.4988 30.9934 31.033 32.4596ZM8.07684 16.3495L12.6451 13.713C12.7713 12.7149 13.1588 11.7452 13.8242 10.9013C12.449 9.90009 10.647 9.12597 8.38935 8.64125C7.41956 11.6899 7.37492 14.2665 8.07684 16.3495ZM25.4286 13.872L24.9726 14.0771C25.7772 15.8667 26.2094 17.8459 26.1503 19.6259L26.6501 19.6424C26.6501 19.6424 26.6501 19.6424 26.6501 19.6425C26.6043 21.0249 26.2629 22.4335 25.3988 23.4644L27.0159 26.2641L34.8806 21.7195L27.2272 8.47006L23.377 10.694C24.2267 11.6054 24.9063 12.7104 25.4286 13.872ZM22.9171 15.0001L22.9171 15.0001C22.2414 13.4973 21.2726 12.2683 20.2712 11.6671C19.771 11.3668 19.2952 11.203 18.8011 11.1907L18.7802 11.1904C18.2782 11.1825 17.7082 11.3298 17.0253 11.7241L16.7752 11.2911L17.0253 11.7241C16.3428 12.1183 15.931 12.5381 15.6868 12.9769C15.4427 13.4156 15.3433 13.9144 15.3533 14.5053C15.3733 15.6735 15.9539 17.1299 16.9172 18.4665C17.8774 19.7986 19.1688 20.9541 20.3654 21.5931L20.3654 21.5931C21.5858 22.2448 22.4714 22.2586 22.9479 21.9845L22.9502 21.9832C22.9588 21.9783 22.9673 21.9738 22.9756 21.9697C23.4407 21.6812 23.8568 20.9091 23.9018 19.5509C23.9467 18.195 23.5907 16.498 22.9171 15.0001ZM5.78618 37.2387L13.2368 31.5681L8.17907 22.8022L2.66185 31.824L5.78618 37.2387ZM25.8398 45.8975L22.8358 40.3718L22.182 40.7485L24.9799 45.8975H25.8398ZM20.7846 38.3776L27.9853 34.2191C26.9803 33.0285 25.6277 32.0206 23.909 31.2345L20.21 33.369C20.0443 35.2397 20.2502 36.9105 20.7846 38.3776ZM36.3632 32.5607L35.7088 32.9389L43.243 45.8975H44.1133L36.3632 32.5607ZM34.5554 45.8974L29.3009 36.638L28.6495 37.014L33.6896 45.8974H34.5554ZM30.1943 45.8974L26.069 38.5053L25.4184 38.8796L29.3355 45.8974H30.1943ZM36.1162 18.3558L44.7491 14.7377L41.6247 9.32563L31.0559 9.59291L36.1162 18.3558ZM14.6854 20.0766C13.9411 19.0438 13.324 17.9026 12.9591 16.7116L9.12045 18.9274L16.7682 32.1792L24.6324 27.6376L23.0188 24.8446C21.6894 25.0823 20.2919 24.6728 19.0682 24.0193C17.4205 23.1394 15.8704 21.7209 14.6854 20.0766ZM45.7919 41.4571L39.5788 30.7034L38.9273 31.0794L45.7919 42.9595V41.4571ZM39.743 45.8975L33.133 34.4248L32.484 34.8002L38.8759 45.8975H39.743Z" stroke="url(#paint1_linear_4_465)"/>
</g>
<defs>
<filter id="filter0_dd_4_465" x="-0.919693" y="-0.855499" width="50.2116" height="50.253" filterUnits="userSpaceOnUse" color-interpolation-filters="sRGB">
<feFlood flood-opacity="0" result="BackgroundImageFix"/>
<feColorMatrix in="SourceAlpha" type="matrix" values="0 0 0 0 0 0 0 0 0 0 0 0 0 0 0 0 0 0 127 0" result="hardAlpha"/>
<feOffset/>
<feGaussianBlur stdDeviation="1.5"/>
<feComposite in2="hardAlpha" operator="out"/>
<feColorMatrix type="matrix" values="0 0 0 0 0.415686 0 0 0 0 0.380392 0 0 0 0 0.988235 0 0 0 0.45 0"/>
<feBlend mode="normal" in2="BackgroundImageFix" result="effect1_dropShadow_4_465"/>
<feColorMatrix in="SourceAlpha" type="matrix" values="0 0 0 0 0 0 0 0 0 0 0 0 0 0 0 0 0 0 127 0" result="hardAlpha"/>
<feOffset dx="2" dy="2"/>
<feGaussianBlur stdDeviation="0.5"/>
<feComposite in2="hardAlpha" operator="out"/>
<feColorMatrix type="matrix" values="0 0 0 0 0.0705882 0 0 0 0 0.054902 0 0 0 0 0.152941 0 0 0 0.3 0"/>
<feBlend mode="normal" in2="effect1_dropShadow_4_465" result="effect2_dropShadow_4_465"/>
<feBlend mode="normal" in="SourceGraphic" in2="effect2_dropShadow_4_465" result="shape"/>
</filter>
<linearGradient id="paint0_linear_4_465" x1="24.1861" y1="46.3975" x2="24.1861" y2="2.1445" gradientUnits="userSpaceOnUse">
<stop stop-color="#09CCF8"/>
<stop offset="1" stop-color="#A321FF"/>
</linearGradient>
<linearGradient id="paint1_linear_4_465" x1="24.1861" y1="2.1445" x2="24.1861" y2="46.3975" gradientUnits="userSpaceOnUse">
<stop stop-color="#C83EFF"/>
<stop offset="1" stop-color="#19C2EF" stop-opacity="0"/>
</linearGradient>
</defs>
</svg>
